<?xml version="1.0" standalone="no"?>
<!DOCTYPE svg PUBLIC "-//W3C//DTD SVG 20010904//EN"
 "http://www.w3.org/TR/2001/REC-SVG-20010904/DTD/svg10.dtd">
<svg version="1.0" xmlns="http://www.w3.org/2000/svg"
 width="50.000000pt" height="50.000000pt" viewBox="0 0 50.000000 50.000000"
 preserveAspectRatio="xMidYMid meet">

<g transform="translate(0.000000,50.000000) scale(0.100000,-0.100000)"
fill="#000000" stroke="none">
<path d="M85 415 c-24 -23 -25 -29 -25 -165 0 -136 1 -142 25 -165 23 -24 29
-25 165 -25 136 0 142 1 165 25 24 23 25 29 25 165 0 136 -1 142 -25 165 -23
24 -29 25 -165 25 -136 0 -142 -1 -165 -25z m309 -21 c23 -23 23 -265 0 -288
-23 -23 -265 -23 -288 0 -23 23 -23 265 0 288 23 23 265 23 288 0z"/>
<path d="M220 355 c0 -11 12 -15 47 -15 l47 0 -64 -65 c-51 -51 -62 -67 -52
-77 10 -10 26 1 77 52 l65 64 0 -47 c0 -40 3 -47 20 -47 18 0 20 7 20 75 l0
75 -80 0 c-64 0 -80 -3 -80 -15z"/>
</g>
</svg>
