<svg id="svg" version="1.1" xmlns="http://www.w3.org/2000/svg"
xmlns:xlink="http://www.w3.org/1999/xlink" width="400" height="400" 
viewBox="0, 0, 400,400"><g id="svgg">
<path id="path0" d="M33.200 200.000 L 33.200 366.000 199.200 366.000 
L 365.200 366.000 365.200 200.000 L 365.200 34.000 199.200 34.000 L 
33.200 34.000 33.200 200.000 M354.000 200.000 L 354.000 354.800 199.200 354.800
L 44.400 354.800 44.400 200.000 L 44.400 45.200 199.200 45.200
L 354.000 45.200 354.000 200.000 M182.000 165.805 C 182.000 218.028,181.894 232.199,181.500 232.901
C 180.664 234.389,179.060 235.599,177.924 235.600 C 177.332 235.600,176.736 235.780,176.600 236.000
C 176.440 236.259,168.463 236.400,153.976 236.400 L 131.600 236.400 131.600 265.200 L 131.600 294.000
156.600 294.000 L 181.600 294.000 181.600 293.000 C 181.600 292.023,181.668 292.000,184.576 292.000
C 186.213 292.000,187.664 291.820,187.800 291.600 C 187.936 291.380,188.656 291.200,189.400 291.200
C 190.144 291.200,190.864 291.020,191.000 290.800 C 191.136 290.580,191.856 290.400,192.600 290.400 
C 193.344 290.400,194.064 290.220,194.200 290.000 C 194.336 289.780,194.876 289.600,195.400 289.600 
C 195.924 289.600,196.464 289.420,196.600 289.200 C 196.736 288.980,197.151 288.800,197.521 288.800 
C 198.398 288.800,208.606 283.716,209.224 282.971 C 209.485 282.657,209.918 282.400,210.187 282.400 
C 210.456 282.400,211.002 282.040,211.400 281.600 C 211.798 281.160,212.330 280.800,212.581 280.800 
C 212.832 280.800,213.741 280.080,214.600 279.200 C 215.459 278.320,216.355 277.600,216.591 277.600 
C 217.137 277.600,223.200 271.520,223.200 270.972 C 223.200 270.747,223.920 269.859,224.800 269.000 
C 225.680 268.141,226.400 267.232,226.400 266.981 C 226.400 266.730,226.760 266.198,227.200 265.800 
C 227.640 265.402,228.000 264.856,228.000 264.587 C 228.000 264.318,228.279 263.866,228.620 263.584 
C 228.961 263.301,229.590 262.300,230.019 261.359 C 230.447 260.418,230.967 259.544,231.174 259.416 
C 231.652 259.121,232.800 256.836,232.800 256.179 C 232.800 255.905,233.340 254.655,234.000 253.400 
C 234.660 252.145,235.200 250.788,235.200 250.383 C 235.200 249.978,235.380 249.536,235.600 249.400 
C 235.820 249.264,236.000 248.544,236.000 247.800 C 236.000 247.056,236.180 246.336,236.400 246.200 
C 236.620 246.064,236.800 245.344,236.800 244.600 C 236.800 243.856,236.980 243.136,237.200 243.000 
C 237.420 242.864,237.600 241.784,237.600 240.600 C 237.600 239.416,237.780 238.336,238.000 238.200 
C 238.264 238.037,238.400 214.463,238.400 168.776 L 238.400 99.600 210.200 99.600 L 182.000 99.600 182.000 165.805 M206.545 111.800 C 206.741 112.311,208.256 112.400,216.787 112.400 L 226.800 112.400 226.800 175.200 C 226.800 216.800,226.665 238.000,226.400 238.000 C 226.180 238.000,226.000 238.900,226.000 240.000 C 226.000 241.100,225.820 242.000,225.600 242.000 C 225.380 242.000,225.200 242.720,225.200 243.600 C 225.200 244.480,225.020 245.200,224.800 245.200 C 224.580 245.200,224.400 245.740,224.400 246.400 C 224.400 247.060,224.220 247.600,224.000 247.600 C 223.780 247.600,223.600 247.949,223.600 248.376 C 223.600 248.803,223.420 249.264,223.200 249.400 C 222.980 249.536,222.800 250.087,222.800 250.624 C 222.800 251.161,222.620 251.600,222.400 251.600 C 222.180 251.600,222.000 251.960,222.000 252.400 C 222.000 252.840,221.820 253.200,221.600 253.200 C 221.380 253.200,221.200 253.478,221.200 253.817 C 221.200 254.156,220.840 254.820,220.400 255.292 C 219.960 255.764,219.600 256.387,219.600 256.675 C 219.600 256.964,219.420 257.200,219.200 257.200 C 218.980 257.200,218.800 257.443,218.800 257.741 C 218.800 258.038,218.260 258.846,217.600 259.537 C 216.940 260.228,216.400 260.976,216.400 261.201 C 216.400 261.695,208.154 270.000,207.664 270.000 C 207.474 270.000,206.754 270.540,206.063 271.200 C 205.372 271.860,204.618 272.400,204.387 272.400 C 204.156 272.400,203.580 272.760,203.108 273.200 C 202.636 273.640,202.013 274.000,201.725 274.000 C 201.436 274.000,201.200 274.180,201.200 274.400 C 201.200 274.620,200.840 274.800,200.400 274.800 C 199.960 274.800,199.600 274.980,199.600 275.200 C 199.600 275.420,199.240 275.600,198.800 275.600 C 198.360 275.600,198.000 275.780,198.000 276.000 C 198.000 276.220,197.640 276.400,197.200 276.400 C 196.760 276.400,196.400 276.580,196.400 276.800 C 196.400 277.020,195.860 277.200,195.200 277.200 C 194.540 277.200,194.000 277.380,194.000 277.600 C 194.000 277.820,193.561 278.000,193.024 278.000 C 192.487 278.000,191.936 278.180,191.800 278.400 C 191.664 278.620,191.023 278.800,190.376 278.800 C 189.729 278.800,189.200 278.980,189.200 279.200 C 189.200 279.420,188.401 279.600,187.424 279.600 C 186.447 279.600,185.536 279.780,185.400 280.000 C 185.261 280.225,183.337 280.400,181.000 280.400 C 178.663 280.400,176.739 280.575,176.600 280.800 C 176.446 281.050,172.529 281.200,166.176 281.200 C 157.397 281.200,156.000 281.282,156.000 281.800 C 156.000 282.308,155.022 282.400,149.600 282.400 L 143.200 282.400 143.200 265.200 L 143.200 248.000 149.592 248.000 L 155.985 248.000 156.239 249.011 L 156.492 250.023 166.833 249.987 L 177.173 249.951 177.431 248.575 C 177.678 247.260,177.764 247.200,179.421 247.200 C 180.373 247.200,181.264 247.020,181.400 246.800 C 181.536 246.580,182.059 246.400,182.562 246.400 C 183.065 246.400,183.802 246.040,184.200 245.600 C 184.598 245.160,185.126 244.800,185.374 244.800 C 187.117 244.800,192.800 237.113,192.800 234.756 C 192.800 234.146,192.980 233.536,193.200 233.400 C 193.464 233.237,193.600 212.396,193.600 172.176 L 193.600 111.200 199.957 111.200 C 205.239 111.200,206.353 111.301,206.545 111.800 " stroke="none" fill="#fcfcfc" fill-rule="evenodd"></path><path id="path1" d="M238.400 168.976 C 238.400 214.796,238.264 238.437,238.000 238.600 C 237.780 238.736,237.600 239.816,237.600 241.000 C 237.600 242.184,237.420 243.264,237.200 243.400 C 236.980 243.536,236.800 244.256,236.800 245.000 C 236.800 245.744,236.620 246.464,236.400 246.600 C 236.180 246.736,236.000 247.456,236.000 248.200 C 236.000 248.944,235.820 249.664,235.600 249.800 C 235.380 249.936,235.200 250.378,235.200 250.783 C 235.200 251.188,234.660 252.545,234.000 253.800 C 233.340 255.055,232.800 256.305,232.800 256.579 C 232.800 257.236,231.652 259.521,231.174 259.816 C 230.967 259.944,230.447 260.818,230.019 261.759 C 229.590 262.700,228.961 263.701,228.620 263.984 C 228.279 264.266,228.000 264.718,228.000 264.987 C 228.000 265.256,227.640 265.802,227.200 266.200 C 226.760 266.598,226.400 267.130,226.400 267.381 C 226.400 267.632,225.680 268.541,224.800 269.400 C 223.920 270.259,223.200 271.155,223.200 271.391 C 223.200 271.937,217.519 277.600,216.972 277.600 C 216.747 277.600,215.859 278.320,215.000 279.200 C 214.141 280.080,213.232 280.800,212.981 280.800 C 212.730 280.800,212.198 281.160,211.800 281.600 C 211.402 282.040,210.856 282.400,210.587 282.400 C 210.318 282.400,209.885 282.657,209.624 282.971 C 209.006 283.716,198.798 288.800,197.921 288.800 C 197.551 288.800,197.136 288.980,197.000 289.200 C 196.864 289.420,196.324 289.600,195.800 289.600 C 195.276 289.600,194.736 289.780,194.600 290.000 C 194.464 290.220,193.744 290.400,193.000 290.400 C 192.256 290.400,191.536 290.580,191.400 290.800 C 191.264 291.020,190.569 291.200,189.856 291.200 C 189.143 291.200,188.389 291.371,188.180 291.580 C 187.970 291.790,186.449 292.015,184.800 292.080 C 182.036 292.191,181.790 292.271,181.672 293.100 L 181.544 294.000 189.772 294.000 C 194.991 294.000,198.000 293.854,198.000 293.600 C 198.000 293.380,198.900 293.200,200.000 293.200 C 201.100 293.200,202.000 293.020,202.000 292.800 C 202.000 292.580,202.720 292.400,203.600 292.400 C 204.480 292.400,205.200 292.220,205.200 292.000 C 205.200 291.780,205.740 291.600,206.400 291.600 C 207.060 291.600,207.600 291.420,207.600 291.200 C 207.600 290.980,208.140 290.800,208.800 290.800 C 209.460 290.800,210.000 290.620,210.000 290.400 C 210.000 290.180,210.540 290.000,211.200 290.000 C 211.860 290.000,212.400 289.820,212.400 289.600 C 212.400 289.380,212.760 289.200,213.200 289.200 C 213.640 289.200,214.000 289.020,214.000 288.800 C 214.000 288.580,214.360 288.400,214.800 288.400 C 215.240 288.400,215.600 288.220,215.600 288.000 C 215.600 287.780,215.960 287.600,216.400 287.600 C 216.840 287.600,217.200 287.420,217.200 287.200 C 217.200 286.980,217.560 286.800,218.000 286.800 C 218.440 286.800,218.800 286.620,218.800 286.400 C 218.800 286.180,219.120 286.000,219.512 286.000 C 219.903 286.000,220.483 285.640,220.800 285.200 C 221.117 284.760,221.657 284.400,222.000 284.400 C 222.343 284.400,222.883 284.040,223.200 283.600 C 223.517 283.160,224.021 282.800,224.320 282.800 C 224.618 282.800,225.554 282.080,226.400 281.200 C 227.246 280.320,228.134 279.600,228.374 279.600 C 228.948 279.600,236.400 272.141,236.400 271.566 C 236.400 271.321,236.940 270.617,237.600 270.000 C 238.260 269.383,238.800 268.631,238.800 268.328 C 238.800 268.025,239.160 267.517,239.600 267.200 C 240.040 266.883,240.400 266.343,240.400 266.000 C 240.400 265.657,240.760 265.117,241.200 264.800 C 241.640 264.483,242.000 263.903,242.000 263.512 C 242.000 263.120,242.180 262.800,242.400 262.800 C 242.620 262.800,242.800 262.440,242.800 262.000 C 242.800 261.560,242.980 261.200,243.200 261.200 C 243.420 261.200,243.600 260.840,243.600 260.400 C 243.600 259.960,243.780 259.600,244.000 259.600 C 244.220 259.600,244.400 259.240,244.400 258.800 C 244.400 258.360,244.580 258.000,244.800 258.000 C 245.020 258.000,245.200 257.640,245.200 257.200 C 245.200 256.760,245.380 256.400,245.600 256.400 C 245.820 256.400,246.000 256.040,246.000 255.600 C 246.000 255.160,246.180 254.800,246.400 254.800 C 246.620 254.800,246.800 254.260,246.800 253.600 C 246.800 252.940,246.980 252.400,247.200 252.400 C 247.420 252.400,247.600 251.860,247.600 251.200 C 247.600 250.540,247.780 250.000,248.000 250.000 C 248.220 250.000,248.400 249.280,248.400 248.400 C 248.400 247.520,248.580 246.800,248.800 246.800 C 249.020 246.800,249.200 246.080,249.200 245.200 C 249.200 244.320,249.380 243.600,249.600 243.600 C 249.833 243.600,250.000 242.267,250.000 240.400 C 250.000 238.533,250.167 237.200,250.400 237.200 C 250.665 237.200,250.800 214.000,250.800 168.400 L 250.800 99.600 244.600 99.600 L 238.400 99.600 238.400 168.976 M193.600 172.344 C 193.600 212.915,193.465 233.600,193.200 233.600 C 192.980 233.600,192.800 234.320,192.800 235.200 C 192.800 236.080,192.620 236.800,192.400 236.800 C 192.180 236.800,192.000 237.160,192.000 237.600 C 192.000 238.040,191.820 238.400,191.600 238.400 C 191.380 238.400,191.200 238.673,191.200 239.007 C 191.200 239.747,186.224 244.800,185.496 244.800 C 185.210 244.800,184.717 245.160,184.400 245.600 C 184.061 246.070,183.365 246.400,182.712 246.400 C 182.100 246.400,181.600 246.580,181.600 246.800 C 181.600 247.020,180.700 247.200,179.600 247.200 C 178.270 247.200,177.598 247.367,177.595 247.700 C 177.592 247.975,177.481 248.605,177.348 249.100 L 177.107 250.000 182.753 250.000 C 186.251 250.000,188.400 249.848,188.400 249.600 C 188.400 249.378,189.467 249.200,190.800 249.200 C 192.133 249.200,193.200 249.022,193.200 248.800 C 193.200 248.580,193.740 248.400,194.400 248.400 C 195.060 248.400,195.600 248.220,195.600 248.000 C 195.600 247.780,195.920 247.600,196.312 247.600 C 196.703 247.600,197.283 247.240,197.600 246.800 C 197.917 246.360,198.412 246.000,198.699 246.000 C 199.427 246.000,202.800 242.555,202.800 241.811 C 202.800 241.475,202.980 241.200,203.200 241.200 C 203.420 241.200,203.600 240.840,203.600 240.400 C 203.600 239.960,203.780 239.600,204.000 239.600 C 204.220 239.600,204.400 239.240,204.400 238.800 C 204.400 238.360,204.580 238.000,204.800 238.000 C 205.020 238.000,205.200 237.280,205.200 236.400 C 205.200 235.520,205.380 234.800,205.600 234.800 C 205.865 234.800,206.000 214.278,206.000 174.033 C 206.000 131.685,206.128 113.224,206.423 113.126 C 206.655 113.048,206.726 112.673,206.580 112.292 C 206.351 111.696,205.723 111.600,202.057 111.597 C 199.716 111.595,196.855 111.480,195.700 111.341 L 193.600 111.089 193.600 172.344 M143.600 265.200 L 143.600 282.000 149.600 282.000 L 155.600 282.000 155.600 266.033 C 155.600 255.168,155.735 250.022,156.023 249.926 C 156.255 249.848,156.326 249.473,156.180 249.092 C 155.944 248.477,155.226 248.400,149.757 248.400 L 143.600 248.400 143.600 265.200 " stroke="none" fill="#0dfcac" fill-rule="evenodd"></path><path id="path2" d="" stroke="none" fill="#100fcd4" fill-rule="evenodd"></path><path id="path3" d="" stroke="none" fill="#100fcd4" fill-rule="evenodd"></path><path id="path4" d="" stroke="none" fill="#100fcd4" fill-rule="evenodd"></path></g></svg>