<?xml version="1.0" standalone="no"?>
<!DOCTYPE svg PUBLIC "-//W3C//DTD SVG 20010904//EN"
 "http://www.w3.org/TR/2001/REC-SVG-20010904/DTD/svg10.dtd">
<svg version="1.0" xmlns="http://www.w3.org/2000/svg"
 width="750.000000pt" height="750.000000pt" viewBox="0 0 750.000000 750.000000"
 preserveAspectRatio="xMidYMid meet">

<g transform="translate(0.000000,750.000000) scale(0.100000,-0.100000)"
fill="#003399" stroke="none">
<path d="M1513 7471 c-22 -16 -50 -49 -62 -73 l-21 -44 0 -3583 c0 -3526 0
-3582 19 -3620 26 -50 82 -98 130 -111 27 -7 710 -9 2192 -8 l2154 3 45 25
c24 14 58 45 75 68 l30 44 3 3576 c2 2556 0 3588 -8 3615 -6 20 -25 53 -42 73
-61 70 140 64 -2281 64 l-2194 0 -40 -29z m1761 -658 c3 -43 13 -204 22 -358
8 -154 17 -286 19 -292 4 -10 186 -13 870 -13 l865 0 11 -24 c8 -16 8 -62 2
-151 -8 -106 -13 -130 -28 -141 -16 -12 -211 -14 -1133 -14 l-1114 0 6 -72 c3
-40 11 -144 17 -230 l12 -157 59 -21 c33 -12 98 -42 144 -66 82 -43 87 -44
178 -44 93 0 93 0 202 55 251 126 446 127 681 5 169 -87 264 -88 426 -1 52 28
129 60 172 71 129 33 307 23 322 -18 7 -16 -8 -285 -28 -512 -5 -63 -18 -241
-29 -394 -16 -227 -23 -283 -37 -298 -15 -17 -63 -18 -1160 -18 -1102 0 -1144
1 -1162 19 -15 15 -20 41 -26 152 -7 130 -6 134 15 151 21 17 76 18 1030 18
l1007 0 6 73 c17 201 30 437 24 443 -3 3 -39 -7 -79 -24 -105 -43 -171 -56
-273 -56 -118 0 -194 21 -334 92 l-115 57 -95 0 c-86 -1 -102 -4 -151 -30
-121 -63 -170 -84 -230 -100 -167 -43 -300 -27 -475 59 -154 76 -219 90 -317
67 -67 -16 -64 -29 -103 510 -19 266 -36 501 -39 521 -2 22 2 45 11 57 14 20
22 21 314 21 l299 0 0 49 c0 52 -25 493 -35 619 l-6 72 125 0 124 0 6 -77z
m1607 -3186 c16 -36 -66 -1136 -86 -1157 -14 -13 -135 -15 -1036 -18 l-1020
-2 -23 23 c-20 20 -24 36 -29 128 -3 57 -20 291 -36 519 -35 464 -36 501 -19
518 9 9 273 12 1125 12 l1113 0 11 -23z m-1831 -1657 c11 -11 20 -24 20 -28 0
-23 51 -715 56 -764 l6 -58 774 0 774 0 14 -23 c13 -19 14 -41 6 -137 -5 -63
-10 -120 -10 -127 0 -6 -7 -19 -16 -27 -14 -14 -111 -16 -923 -16 -822 0 -910
2 -922 16 -9 12 -25 175 -54 581 l-40 565 24 19 c20 16 40 19 147 19 111 0
126 -2 144 -20z m490 -308 c14 -10 33 -35 44 -56 16 -32 17 -44 7 -76 -13 -44
-57 -85 -101 -95 -48 -11 -100 21 -128 77 l-24 47 20 45 c35 78 117 104 182
58z m368 0 c78 -51 65 -175 -23 -216 -48 -23 -102 -10 -139 35 -45 53 -46 100
-5 154 43 53 110 65 167 27z m360 1 c91 -57 71 -189 -35 -224 -28 -9 -40 -7
-76 10 -82 40 -101 130 -41 192 46 48 99 56 152 22z"/>
<path d="M2974 3258 c3 -35 10 -130 16 -213 6 -82 13 -174 16 -202 l5 -53 745
0 c702 0 744 1 744 18 0 9 7 107 15 217 8 110 15 221 15 248 l0 47 -781 0
-781 0 6 -62z"/>
</g>
</svg>
